<?xml version="1.0" standalone="no"?>
<!DOCTYPE svg PUBLIC "-//W3C//DTD SVG 20010904//EN"
 "http://www.w3.org/TR/2001/REC-SVG-20010904/DTD/svg10.dtd">
<svg version="1.0" xmlns="http://www.w3.org/2000/svg"
 width="512.000000pt" height="512.000000pt" viewBox="0 0 512.000000 512.000000"
 preserveAspectRatio="xMidYMid meet">

<g transform="translate(0.000000,512.000000) scale(0.100000,-0.100000)"
fill="#000000" stroke="none">
<path d="M371 5109 c-72 -14 -168 -65 -226 -120 -63 -60 -119 -163 -135 -248
-14 -73 -13 -1550 0 -1622 35 -182 188 -335 369 -369 72 -13 1550 -13 1622 0
181 34 334 187 369 369 13 72 14 1549 0 1622 -34 181 -187 334 -369 369 -66
12 -1566 12 -1630 -1z m1664 -214 c21 -10 56 -37 76 -58 72 -73 70 -41 67
-923 -3 -757 -4 -791 -22 -828 -25 -50 -72 -97 -122 -122 -38 -18 -68 -19
-844 -19 -776 0 -806 1 -844 19 -50 25 -97 72 -122 122 -18 37 -19 71 -22 824
-2 564 0 796 8 824 24 81 80 140 165 173 22 9 233 11 825 10 768 -2 796 -3
835 -22z"/>
<path d="M3722 5095 c-420 -76 -780 -389 -910 -791 -45 -139 -57 -216 -57
-374 0 -158 12 -235 56 -374 93 -285 308 -536 579 -675 338 -173 738 -176
1075 -9 327 163 571 492 636 858 17 95 17 302 0 400 -27 155 -103 341 -194
474 -129 190 -351 360 -575 440 -177 63 -428 84 -610 51z m313 -185 c246 -28
448 -129 618 -310 287 -305 348 -756 152 -1127 -248 -470 -811 -658 -1293
-433 -280 132 -479 387 -544 700 -16 78 -19 120 -15 230 8 199 53 342 162 505
177 266 473 430 800 444 17 0 71 -4 120 -9z"/>
<path d="M1070 2365 c-8 -2 -49 -9 -90 -15 -350 -57 -678 -300 -842 -625 -45
-89 -70 -154 -99 -265 -30 -110 -37 -354 -15 -475 49 -261 166 -479 353 -656
93 -89 166 -140 282 -198 173 -87 334 -125 531 -125 143 0 237 14 363 55 351
114 627 382 752 729 85 237 88 532 6 772 -135 399 -466 693 -884 784 -65 14
-321 28 -357 19z m315 -214 c377 -78 664 -353 762 -730 34 -132 36 -325 5
-454 -96 -393 -404 -683 -798 -752 -387 -67 -789 113 -997 447 -245 392 -190
891 134 1216 145 146 340 249 536 282 91 15 263 11 358 -9z"/>
<path d="M3750 2355 c-554 -87 -972 -554 -997 -1115 -22 -527 301 -1004 797
-1173 136 -46 224 -60 385 -60 170 0 268 17 422 75 535 201 849 768 737 1333
-72 359 -304 663 -634 830 -215 108 -469 147 -710 110z m340 -195 c384 -60
696 -348 802 -738 31 -114 31 -343 0 -465 -61 -245 -207 -453 -414 -590 -97
-65 -189 -106 -308 -138 -117 -32 -356 -33 -472 -1 -181 49 -331 134 -459 262
-125 124 -214 276 -261 450 -20 73 -23 108 -22 250 0 193 15 262 89 417 111
236 292 402 548 504 129 52 342 73 497 49z"/>
</g>
</svg>
