<?xml version="1.0" standalone="no"?>
<!DOCTYPE svg PUBLIC "-//W3C//DTD SVG 20010904//EN"
 "http://www.w3.org/TR/2001/REC-SVG-20010904/DTD/svg10.dtd">
<svg version="1.0" xmlns="http://www.w3.org/2000/svg"
 width="64.000000pt" height="64.000000pt" viewBox="0 0 64.000000 64.000000"
 preserveAspectRatio="xMidYMid meet">

<g transform="translate(0.000000,64.000000) scale(0.100000,-0.100000)"
fill="#000000" stroke="none">
<path d="M265 571 c-53 -15 -80 -28 -113 -56 -41 -35 -31 -53 12 -20 76 58
182 72 263 36 37 -17 42 -24 45 -57 2 -30 9 -42 31 -54 24 -13 30 -13 55 0 39
22 44 82 8 105 -16 11 -35 15 -50 11 -14 -3 -42 2 -68 14 -52 23 -140 33 -183
21z m296 -77 c17 -21 0 -49 -31 -49 -31 0 -48 28 -31 49 8 9 21 16 31 16 10 0
23 -7 31 -16z"/>
<path d="M232 439 c-41 -20 -132 -102 -132 -118 0 -16 96 -102 135 -121 84
-41 176 -17 260 67 25 24 45 48 45 52 0 16 -96 102 -135 121 -54 26 -119 25
-173 -1z m183 -34 c22 -13 53 -37 69 -54 l30 -31 -30 -31 c-103 -109 -225
-109 -328 0 l-30 31 25 26 c86 92 174 112 264 59z"/>
<path d="M271 406 c-87 -48 -50 -186 49 -186 51 0 100 49 100 99 0 75 -83 124
-149 87z m103 -36 c26 -25 25 -76 -2 -102 -45 -45 -125 -13 -125 51 0 70 75
100 127 51z"/>
<path d="M72 214 c-32 -22 -30 -78 3 -100 15 -10 34 -14 49 -10 15 3 43 -3 72
-16 36 -16 68 -22 119 -21 76 0 124 16 174 59 42 35 29 51 -15 18 -72 -56
-183 -70 -261 -34 -39 17 -43 23 -43 54 0 36 -27 66 -60 66 -9 0 -26 -7 -38
-16z m69 -30 c17 -21 0 -49 -31 -49 -31 0 -48 28 -31 49 8 9 21 16 31 16 10 0
23 -7 31 -16z"/>
</g>
</svg>
