<?xml version="1.0" standalone="no"?>
<!DOCTYPE svg PUBLIC "-//W3C//DTD SVG 20010904//EN"
 "http://www.w3.org/TR/2001/REC-SVG-20010904/DTD/svg10.dtd">
<svg version="1.0" xmlns="http://www.w3.org/2000/svg"
 width="50.000000pt" height="50.000000pt" viewBox="0 0 50.000000 50.000000"
 preserveAspectRatio="xMidYMid meet">

<g transform="translate(0.000000,50.000000) scale(0.100000,-0.100000)"
fill="#000000" stroke="none">
<path d="M198 454 c-30 -16 -58 -61 -58 -94 0 -53 57 -110 110 -110 53 0 110
57 110 110 0 34 -28 78 -60 95 -36 19 -67 19 -102 -1z m113 -33 c39 -40 39
-82 0 -122 -20 -20 -39 -29 -61 -29 -22 0 -41 9 -61 29 -39 40 -39 82 0 122
20 20 39 29 61 29 22 0 41 -9 61 -29z"/>
<path d="M229 393 c-12 -15 -12 -16 4 -10 14 5 17 1 17 -28 0 -19 5 -35 10
-35 6 0 10 20 10 45 0 48 -16 59 -41 28z"/>
<path d="M68 234 c-30 -16 -58 -61 -58 -94 0 -53 57 -110 110 -110 53 0 110
57 110 110 0 34 -28 78 -60 95 -36 19 -67 19 -102 -1z m113 -33 c39 -40 39
-82 0 -122 -40 -39 -82 -39 -122 0 -20 20 -29 39 -29 61 0 43 47 90 90 90 22
0 41 -9 61 -29z"/>
<path d="M97 183 c-4 -3 -7 -11 -7 -17 0 -6 5 -5 12 2 7 7 16 12 20 12 15 0 8
-27 -12 -45 -28 -26 -25 -35 13 -34 25 1 27 3 9 6 l-24 5 22 23 c13 14 20 31
17 39 -6 16 -38 22 -50 9z"/>
<path d="M328 234 c-30 -16 -58 -61 -58 -94 0 -53 57 -110 110 -110 53 0 110
57 110 110 0 34 -28 78 -60 95 -36 19 -67 19 -102 -1z m113 -33 c20 -20 29
-39 29 -61 0 -43 -47 -90 -90 -90 -43 0 -90 47 -90 90 0 43 47 90 90 90 22 0
41 -9 61 -29z"/>
<path d="M347 186 c-7 -19 4 -21 21 -4 9 9 15 9 24 0 9 -9 7 -16 -7 -32 -25
-27 -12 -37 15 -12 30 28 23 56 -16 60 -21 2 -33 -2 -37 -12z"/>
<path d="M370 90 c0 -5 5 -10 10 -10 6 0 10 5 10 10 0 6 -4 10 -10 10 -5 0
-10 -4 -10 -10z"/>
</g>
</svg>
